<mxfile host="app.diagrams.net" modified="2023-07-26T13:56:36.196Z" agent="Mozilla/5.0 (X11; Linux x86_64) AppleWebKit/537.36 (KHTML, like Gecko) Chrome/114.0.0.0 Safari/537.36" etag="7nlIdyQomQK5gQOUUOD-" version="21.3.6" type="github">
  <diagram id="984q4uurinNOGXVSppAD" name="Arquitetura Android18API">
    <mxGraphModel dx="3690" dy="-276" grid="1" gridSize="10" guides="1" tooltips="1" connect="1" arrows="1" fold="1" page="1" pageScale="1" pageWidth="827" pageHeight="1169" math="0" shadow="0">
      <root>
        <mxCell id="0" />
        <mxCell id="1" parent="0" />
        <mxCell id="eVxNwqdZ_CVqc7oLJf9I-89" value="Entities" style="swimlane;whiteSpace=wrap;html=1;fontSize=15;" parent="1" vertex="1">
          <mxGeometry x="-1590" y="1230" width="1280" height="260" as="geometry" />
        </mxCell>
        <mxCell id="eVxNwqdZ_CVqc7oLJf9I-69" value="&lt;p style=&quot;margin:0px;margin-top:4px;text-align:center;&quot;&gt;&lt;b&gt;Menu&lt;/b&gt;&lt;/p&gt;&lt;hr size=&quot;1&quot;&gt;&lt;p style=&quot;margin:0px;margin-left:4px;&quot;&gt;+ id: UUID&lt;/p&gt;&lt;p style=&quot;margin:0px;margin-left:4px;&quot;&gt;+ defaultMessage: string&lt;/p&gt;&lt;p style=&quot;margin:0px;margin-left:4px;&quot;&gt;+ isPrincipal: boolean&lt;/p&gt;&lt;p style=&quot;margin:0px;margin-left:4px;&quot;&gt;+ isFinal: boolean&lt;/p&gt;&lt;p style=&quot;margin:0px;margin-left:4px;&quot;&gt;+ options: Option[ ]&lt;/p&gt;&lt;hr size=&quot;1&quot;&gt;&lt;p style=&quot;margin:0px;margin-left:4px;&quot;&gt;+ getMenuMessage(): string&lt;/p&gt;" style="verticalAlign=top;align=left;overflow=fill;fontSize=12;fontFamily=Helvetica;html=1;" parent="eVxNwqdZ_CVqc7oLJf9I-89" vertex="1">
          <mxGeometry x="20" y="50" width="190" height="170" as="geometry" />
        </mxCell>
        <mxCell id="eVxNwqdZ_CVqc7oLJf9I-70" value="&lt;p style=&quot;margin:0px;margin-top:4px;text-align:center;&quot;&gt;&lt;b&gt;Option&lt;/b&gt;&lt;/p&gt;&lt;hr size=&quot;1&quot;&gt;&lt;p style=&quot;margin:0px;margin-left:4px;&quot;&gt;+ id: UUID&lt;/p&gt;&lt;p style=&quot;margin:0px;margin-left:4px;&quot;&gt;+ nextMenu: string&lt;/p&gt;&lt;p style=&quot;margin:0px;margin-left:4px;&quot;&gt;+ message: string&lt;/p&gt;&lt;p style=&quot;margin:0px;margin-left:4px;&quot;&gt;+ order: number&lt;/p&gt;&lt;hr size=&quot;1&quot;&gt;&lt;p style=&quot;margin:0px;margin-left:4px;&quot;&gt;+ getFullMessage(): string&lt;/p&gt;" style="verticalAlign=top;align=left;overflow=fill;fontSize=12;fontFamily=Helvetica;html=1;" parent="eVxNwqdZ_CVqc7oLJf9I-89" vertex="1">
          <mxGeometry x="230" y="50" width="190" height="170" as="geometry" />
        </mxCell>
        <mxCell id="eVxNwqdZ_CVqc7oLJf9I-72" value="&lt;p style=&quot;margin:0px;margin-top:4px;text-align:center;&quot;&gt;&lt;b&gt;Chat&lt;/b&gt;&lt;/p&gt;&lt;hr size=&quot;1&quot;&gt;&lt;p style=&quot;margin:0px;margin-left:4px;&quot;&gt;+ id: UUID&lt;/p&gt;&lt;p style=&quot;margin:0px;margin-left:4px;&quot;&gt;+ lastMessage: Date&lt;/p&gt;&lt;p style=&quot;margin:0px;margin-left:4px;&quot;&gt;+ isActive: boolean&lt;/p&gt;&lt;p style=&quot;margin:0px;margin-left:4px;&quot;&gt;+ actualStepMenu: Menu&lt;/p&gt;&lt;p style=&quot;margin:0px;margin-left:4px;&quot;&gt;+ customer: User&lt;/p&gt;&lt;hr size=&quot;1&quot;&gt;&lt;p style=&quot;margin:0px;margin-left:4px;&quot;&gt;+ getChatIsAlive(): boolean&lt;/p&gt;&lt;p style=&quot;margin:0px;margin-left:4px;&quot;&gt;+ getChatToJSON: json&lt;/p&gt;" style="verticalAlign=top;align=left;overflow=fill;fontSize=12;fontFamily=Helvetica;html=1;" parent="eVxNwqdZ_CVqc7oLJf9I-89" vertex="1">
          <mxGeometry x="440" y="50" width="190" height="170" as="geometry" />
        </mxCell>
        <mxCell id="eVxNwqdZ_CVqc7oLJf9I-98" value="&amp;nbsp;" style="swimlane;whiteSpace=wrap;html=1;fontSize=15;" parent="1" vertex="1">
          <mxGeometry x="-1590" y="1610" width="2370" height="1610" as="geometry" />
        </mxCell>
        <mxCell id="eVxNwqdZ_CVqc7oLJf9I-1" value="Presentation Layer" style="swimlane;horizontal=0;whiteSpace=wrap;html=1;startSize=23;" parent="eVxNwqdZ_CVqc7oLJf9I-98" vertex="1">
          <mxGeometry x="60" y="80" width="880" height="510" as="geometry" />
        </mxCell>
        <mxCell id="eVxNwqdZ_CVqc7oLJf9I-2" value="Controllers" style="swimlane;horizontal=0;whiteSpace=wrap;html=1;" parent="eVxNwqdZ_CVqc7oLJf9I-1" vertex="1">
          <mxGeometry x="70" y="30" width="730" height="220" as="geometry" />
        </mxCell>
        <mxCell id="eVxNwqdZ_CVqc7oLJf9I-3" value="Controllers" style="rounded=0;whiteSpace=wrap;html=1;" parent="eVxNwqdZ_CVqc7oLJf9I-2" vertex="1">
          <mxGeometry x="305" y="140" width="120" height="60" as="geometry" />
        </mxCell>
        <mxCell id="eVxNwqdZ_CVqc7oLJf9I-4" value="" style="edgeStyle=orthogonalEdgeStyle;rounded=0;orthogonalLoop=1;jettySize=auto;html=1;" parent="eVxNwqdZ_CVqc7oLJf9I-2" source="eVxNwqdZ_CVqc7oLJf9I-5" target="eVxNwqdZ_CVqc7oLJf9I-3" edge="1">
          <mxGeometry relative="1" as="geometry" />
        </mxCell>
        <mxCell id="eVxNwqdZ_CVqc7oLJf9I-5" value="Middlewares" style="shape=hexagon;perimeter=hexagonPerimeter2;whiteSpace=wrap;html=1;fixedSize=1;" parent="eVxNwqdZ_CVqc7oLJf9I-2" vertex="1">
          <mxGeometry x="305" y="20" width="120" height="80" as="geometry" />
        </mxCell>
        <mxCell id="eVxNwqdZ_CVqc7oLJf9I-6" value="Application" style="swimlane;horizontal=0;whiteSpace=wrap;html=1;" parent="eVxNwqdZ_CVqc7oLJf9I-1" vertex="1">
          <mxGeometry x="70" y="280" width="730" height="160" as="geometry" />
        </mxCell>
        <mxCell id="eVxNwqdZ_CVqc7oLJf9I-7" value="Application Services" style="whiteSpace=wrap;html=1;" parent="eVxNwqdZ_CVqc7oLJf9I-6" vertex="1">
          <mxGeometry x="305" y="50" width="120" height="60" as="geometry" />
        </mxCell>
        <mxCell id="eVxNwqdZ_CVqc7oLJf9I-8" style="edgeStyle=orthogonalEdgeStyle;rounded=0;orthogonalLoop=1;jettySize=auto;html=1;" parent="eVxNwqdZ_CVqc7oLJf9I-1" source="eVxNwqdZ_CVqc7oLJf9I-3" target="eVxNwqdZ_CVqc7oLJf9I-7" edge="1">
          <mxGeometry relative="1" as="geometry" />
        </mxCell>
        <mxCell id="eVxNwqdZ_CVqc7oLJf9I-20" value="Common Layer" style="swimlane;horizontal=0;whiteSpace=wrap;html=1;" parent="eVxNwqdZ_CVqc7oLJf9I-98" vertex="1">
          <mxGeometry x="1320" y="80" width="1020" height="1020" as="geometry" />
        </mxCell>
        <mxCell id="eVxNwqdZ_CVqc7oLJf9I-21" value="Frameworks" style="swimlane;horizontal=0;whiteSpace=wrap;html=1;" parent="eVxNwqdZ_CVqc7oLJf9I-20" vertex="1">
          <mxGeometry x="90" y="30" width="880" height="210" as="geometry" />
        </mxCell>
        <mxCell id="eVxNwqdZ_CVqc7oLJf9I-22" value="Mongoose" style="swimlane;whiteSpace=wrap;html=1;" parent="eVxNwqdZ_CVqc7oLJf9I-21" vertex="1">
          <mxGeometry x="80" y="30" width="200" height="110" as="geometry" />
        </mxCell>
        <mxCell id="eVxNwqdZ_CVqc7oLJf9I-23" value="Prisma" style="swimlane;whiteSpace=wrap;html=1;" parent="eVxNwqdZ_CVqc7oLJf9I-21" vertex="1">
          <mxGeometry x="314" y="30" width="200" height="110" as="geometry" />
        </mxCell>
        <mxCell id="eVxNwqdZ_CVqc7oLJf9I-24" value="Cache" style="swimlane;horizontal=0;whiteSpace=wrap;html=1;" parent="eVxNwqdZ_CVqc7oLJf9I-20" vertex="1">
          <mxGeometry x="90" y="269" width="880" height="200" as="geometry" />
        </mxCell>
        <mxCell id="eVxNwqdZ_CVqc7oLJf9I-25" value="Redis" style="swimlane;whiteSpace=wrap;html=1;" parent="eVxNwqdZ_CVqc7oLJf9I-24" vertex="1">
          <mxGeometry x="80" y="53" width="200" height="100" as="geometry" />
        </mxCell>
        <mxCell id="eVxNwqdZ_CVqc7oLJf9I-26" value="Memcache" style="swimlane;whiteSpace=wrap;html=1;" parent="eVxNwqdZ_CVqc7oLJf9I-24" vertex="1">
          <mxGeometry x="314" y="52" width="200" height="100" as="geometry" />
        </mxCell>
        <mxCell id="eVxNwqdZ_CVqc7oLJf9I-27" value="Core" style="swimlane;horizontal=0;whiteSpace=wrap;html=1;" parent="eVxNwqdZ_CVqc7oLJf9I-20" vertex="1">
          <mxGeometry x="90" y="499" width="880" height="230" as="geometry" />
        </mxCell>
        <mxCell id="eVxNwqdZ_CVqc7oLJf9I-28" value="Zenvia API" style="swimlane;whiteSpace=wrap;html=1;startSize=23;" parent="eVxNwqdZ_CVqc7oLJf9I-27" vertex="1">
          <mxGeometry x="80" y="40" width="200" height="150" as="geometry" />
        </mxCell>
        <mxCell id="eVxNwqdZ_CVqc7oLJf9I-29" value="Default Core Structure" style="rounded=0;whiteSpace=wrap;html=1;" parent="eVxNwqdZ_CVqc7oLJf9I-28" vertex="1">
          <mxGeometry x="40" y="50" width="120" height="60" as="geometry" />
        </mxCell>
        <mxCell id="eVxNwqdZ_CVqc7oLJf9I-30" value="SendGrid" style="swimlane;whiteSpace=wrap;html=1;startSize=23;" parent="eVxNwqdZ_CVqc7oLJf9I-27" vertex="1">
          <mxGeometry x="550" y="40" width="200" height="150" as="geometry" />
        </mxCell>
        <mxCell id="eVxNwqdZ_CVqc7oLJf9I-31" value="Default Core Structure" style="rounded=0;whiteSpace=wrap;html=1;" parent="eVxNwqdZ_CVqc7oLJf9I-30" vertex="1">
          <mxGeometry x="40" y="51" width="120" height="60" as="geometry" />
        </mxCell>
        <mxCell id="eVxNwqdZ_CVqc7oLJf9I-32" value="Meta API" style="swimlane;whiteSpace=wrap;html=1;" parent="eVxNwqdZ_CVqc7oLJf9I-27" vertex="1">
          <mxGeometry x="314" y="40" width="200" height="150" as="geometry" />
        </mxCell>
        <mxCell id="eVxNwqdZ_CVqc7oLJf9I-33" value="Default Core Structure" style="rounded=0;whiteSpace=wrap;html=1;" parent="eVxNwqdZ_CVqc7oLJf9I-32" vertex="1">
          <mxGeometry x="40" y="50" width="120" height="60" as="geometry" />
        </mxCell>
        <mxCell id="eVxNwqdZ_CVqc7oLJf9I-34" value="Utils" style="swimlane;horizontal=0;whiteSpace=wrap;html=1;startSize=23;" parent="eVxNwqdZ_CVqc7oLJf9I-20" vertex="1">
          <mxGeometry x="90" y="759" width="880" height="183" as="geometry" />
        </mxCell>
        <mxCell id="eVxNwqdZ_CVqc7oLJf9I-9" value="Core Layer" style="swimlane;horizontal=0;whiteSpace=wrap;html=1;startSize=23;" parent="eVxNwqdZ_CVqc7oLJf9I-98" vertex="1">
          <mxGeometry x="60" y="650" width="880" height="450" as="geometry" />
        </mxCell>
        <mxCell id="eVxNwqdZ_CVqc7oLJf9I-10" value="Feature" style="swimlane;horizontal=0;whiteSpace=wrap;html=1;startSize=23;" parent="eVxNwqdZ_CVqc7oLJf9I-9" vertex="1">
          <mxGeometry x="70" y="45" width="520" height="360" as="geometry" />
        </mxCell>
        <mxCell id="eVxNwqdZ_CVqc7oLJf9I-11" style="edgeStyle=orthogonalEdgeStyle;rounded=0;orthogonalLoop=1;jettySize=auto;html=1;entryX=0.5;entryY=0;entryDx=0;entryDy=0;" parent="eVxNwqdZ_CVqc7oLJf9I-10" source="eVxNwqdZ_CVqc7oLJf9I-12" target="eVxNwqdZ_CVqc7oLJf9I-16" edge="1">
          <mxGeometry relative="1" as="geometry" />
        </mxCell>
        <mxCell id="eVxNwqdZ_CVqc7oLJf9I-12" value="Contracts" style="rounded=0;whiteSpace=wrap;html=1;" parent="eVxNwqdZ_CVqc7oLJf9I-10" vertex="1">
          <mxGeometry x="110" y="30" width="120" height="60" as="geometry" />
        </mxCell>
        <mxCell id="eVxNwqdZ_CVqc7oLJf9I-13" style="edgeStyle=orthogonalEdgeStyle;rounded=0;orthogonalLoop=1;jettySize=auto;html=1;entryX=0.5;entryY=1;entryDx=0;entryDy=0;dashed=1;" parent="eVxNwqdZ_CVqc7oLJf9I-10" source="eVxNwqdZ_CVqc7oLJf9I-16" target="eVxNwqdZ_CVqc7oLJf9I-17" edge="1">
          <mxGeometry relative="1" as="geometry">
            <Array as="points">
              <mxPoint x="410" y="170" />
            </Array>
          </mxGeometry>
        </mxCell>
        <mxCell id="eVxNwqdZ_CVqc7oLJf9I-14" style="edgeStyle=orthogonalEdgeStyle;rounded=0;orthogonalLoop=1;jettySize=auto;html=1;entryX=0.5;entryY=0;entryDx=0;entryDy=0;dashed=1;" parent="eVxNwqdZ_CVqc7oLJf9I-10" source="eVxNwqdZ_CVqc7oLJf9I-16" target="eVxNwqdZ_CVqc7oLJf9I-18" edge="1">
          <mxGeometry relative="1" as="geometry">
            <Array as="points">
              <mxPoint x="410" y="170" />
            </Array>
          </mxGeometry>
        </mxCell>
        <mxCell id="eVxNwqdZ_CVqc7oLJf9I-15" style="edgeStyle=orthogonalEdgeStyle;rounded=0;orthogonalLoop=1;jettySize=auto;html=1;entryX=0.5;entryY=0;entryDx=0;entryDy=0;startArrow=classic;startFill=1;endArrow=none;endFill=0;" parent="eVxNwqdZ_CVqc7oLJf9I-10" source="eVxNwqdZ_CVqc7oLJf9I-16" target="9Gfkjk0SFlBycNrcMV9Y-1" edge="1">
          <mxGeometry relative="1" as="geometry">
            <mxPoint x="170" y="245" as="targetPoint" />
          </mxGeometry>
        </mxCell>
        <mxCell id="eVxNwqdZ_CVqc7oLJf9I-16" value="Services" style="rounded=0;whiteSpace=wrap;html=1;" parent="eVxNwqdZ_CVqc7oLJf9I-10" vertex="1">
          <mxGeometry x="110" y="140" width="120" height="60" as="geometry" />
        </mxCell>
        <mxCell id="eVxNwqdZ_CVqc7oLJf9I-17" value="Entities" style="rounded=0;whiteSpace=wrap;html=1;" parent="eVxNwqdZ_CVqc7oLJf9I-10" vertex="1">
          <mxGeometry x="350" y="80" width="120" height="60" as="geometry" />
        </mxCell>
        <mxCell id="eVxNwqdZ_CVqc7oLJf9I-18" value="Abstractions" style="rounded=0;whiteSpace=wrap;html=1;" parent="eVxNwqdZ_CVqc7oLJf9I-10" vertex="1">
          <mxGeometry x="350" y="200" width="120" height="60" as="geometry" />
        </mxCell>
        <mxCell id="eVxNwqdZ_CVqc7oLJf9I-19" value="Repositories" style="rounded=0;whiteSpace=wrap;html=1;" parent="eVxNwqdZ_CVqc7oLJf9I-10" vertex="1">
          <mxGeometry x="350" y="285" width="120" height="60" as="geometry" />
        </mxCell>
        <mxCell id="9Gfkjk0SFlBycNrcMV9Y-2" value="" style="edgeStyle=orthogonalEdgeStyle;rounded=0;orthogonalLoop=1;jettySize=auto;html=1;" parent="eVxNwqdZ_CVqc7oLJf9I-10" source="9Gfkjk0SFlBycNrcMV9Y-1" target="eVxNwqdZ_CVqc7oLJf9I-19" edge="1">
          <mxGeometry relative="1" as="geometry" />
        </mxCell>
        <mxCell id="9Gfkjk0SFlBycNrcMV9Y-1" value="Repo Contracts" style="rounded=0;whiteSpace=wrap;html=1;" parent="eVxNwqdZ_CVqc7oLJf9I-10" vertex="1">
          <mxGeometry x="110" y="285" width="120" height="60" as="geometry" />
        </mxCell>
        <mxCell id="eVxNwqdZ_CVqc7oLJf9I-35" value="Data Services" style="swimlane;horizontal=0;whiteSpace=wrap;html=1;" parent="eVxNwqdZ_CVqc7oLJf9I-98" vertex="1">
          <mxGeometry x="60" y="1140" width="360" height="210" as="geometry" />
        </mxCell>
        <mxCell id="eVxNwqdZ_CVqc7oLJf9I-36" value="Database" style="shape=cylinder3;whiteSpace=wrap;html=1;boundedLbl=1;backgroundOutline=1;size=15;" parent="eVxNwqdZ_CVqc7oLJf9I-35" vertex="1">
          <mxGeometry x="100" y="65" width="60" height="80" as="geometry" />
        </mxCell>
        <mxCell id="eVxNwqdZ_CVqc7oLJf9I-37" value="External API" style="shape=cylinder3;whiteSpace=wrap;html=1;boundedLbl=1;backgroundOutline=1;size=15;" parent="eVxNwqdZ_CVqc7oLJf9I-35" vertex="1">
          <mxGeometry x="210" y="65" width="60" height="80" as="geometry" />
        </mxCell>
        <mxCell id="eVxNwqdZ_CVqc7oLJf9I-38" style="edgeStyle=orthogonalEdgeStyle;rounded=0;orthogonalLoop=1;jettySize=auto;html=1;startArrow=classic;startFill=1;endArrow=none;endFill=0;" parent="eVxNwqdZ_CVqc7oLJf9I-98" source="eVxNwqdZ_CVqc7oLJf9I-7" target="eVxNwqdZ_CVqc7oLJf9I-12" edge="1">
          <mxGeometry relative="1" as="geometry">
            <Array as="points">
              <mxPoint x="495" y="755" />
            </Array>
            <mxPoint x="410" y="750" as="targetPoint" />
          </mxGeometry>
        </mxCell>
        <mxCell id="eVxNwqdZ_CVqc7oLJf9I-39" style="edgeStyle=orthogonalEdgeStyle;rounded=0;orthogonalLoop=1;jettySize=auto;html=1;entryX=0.5;entryY=0;entryDx=0;entryDy=0;startArrow=none;startFill=0;endArrow=classic;endFill=1;exitX=0.5;exitY=1;exitDx=0;exitDy=0;" parent="eVxNwqdZ_CVqc7oLJf9I-98" source="eVxNwqdZ_CVqc7oLJf9I-19" target="eVxNwqdZ_CVqc7oLJf9I-35" edge="1">
          <mxGeometry relative="1" as="geometry">
            <mxPoint x="300" y="1060" as="sourcePoint" />
            <Array as="points">
              <mxPoint x="540" y="1080" />
              <mxPoint x="240" y="1080" />
            </Array>
          </mxGeometry>
        </mxCell>
        <mxCell id="eVxNwqdZ_CVqc7oLJf9I-99" value="Default Core Structure" style="swimlane;whiteSpace=wrap;html=1;fontSize=15;" parent="eVxNwqdZ_CVqc7oLJf9I-98" vertex="1">
          <mxGeometry x="1320" y="1180" width="1020" height="340" as="geometry" />
        </mxCell>
        <mxCell id="eVxNwqdZ_CVqc7oLJf9I-117" value="" style="edgeStyle=orthogonalEdgeStyle;rounded=0;orthogonalLoop=1;jettySize=auto;html=1;dashed=1;fontSize=15;" parent="eVxNwqdZ_CVqc7oLJf9I-99" source="eVxNwqdZ_CVqc7oLJf9I-115" target="eVxNwqdZ_CVqc7oLJf9I-116" edge="1">
          <mxGeometry relative="1" as="geometry" />
        </mxCell>
        <mxCell id="eVxNwqdZ_CVqc7oLJf9I-115" value="&lt;font color=&quot;#000000&quot;&gt;Application Services&lt;/font&gt;" style="rounded=1;whiteSpace=wrap;html=1;fontSize=15;fillColor=#ffe6cc;strokeColor=#d79b00;fontStyle=1" parent="eVxNwqdZ_CVqc7oLJf9I-99" vertex="1">
          <mxGeometry x="103" y="55" width="120" height="60" as="geometry" />
        </mxCell>
        <mxCell id="eVxNwqdZ_CVqc7oLJf9I-120" value="" style="edgeStyle=orthogonalEdgeStyle;rounded=0;orthogonalLoop=1;jettySize=auto;html=1;fontSize=15;" parent="eVxNwqdZ_CVqc7oLJf9I-99" source="eVxNwqdZ_CVqc7oLJf9I-116" target="eVxNwqdZ_CVqc7oLJf9I-118" edge="1">
          <mxGeometry relative="1" as="geometry" />
        </mxCell>
        <mxCell id="eVxNwqdZ_CVqc7oLJf9I-116" value="Contracts" style="rounded=0;whiteSpace=wrap;html=1;fontSize=15;" parent="eVxNwqdZ_CVqc7oLJf9I-99" vertex="1">
          <mxGeometry x="20" y="200" width="286" height="60" as="geometry" />
        </mxCell>
        <mxCell id="eVxNwqdZ_CVqc7oLJf9I-121" value="" style="edgeStyle=orthogonalEdgeStyle;rounded=0;orthogonalLoop=1;jettySize=auto;html=1;fontSize=15;" parent="eVxNwqdZ_CVqc7oLJf9I-99" source="eVxNwqdZ_CVqc7oLJf9I-118" target="eVxNwqdZ_CVqc7oLJf9I-119" edge="1">
          <mxGeometry relative="1" as="geometry" />
        </mxCell>
        <mxCell id="eVxNwqdZ_CVqc7oLJf9I-125" style="edgeStyle=orthogonalEdgeStyle;rounded=0;orthogonalLoop=1;jettySize=auto;html=1;entryX=0;entryY=0.5;entryDx=0;entryDy=0;fontSize=15;dashed=1;" parent="eVxNwqdZ_CVqc7oLJf9I-99" source="eVxNwqdZ_CVqc7oLJf9I-118" target="eVxNwqdZ_CVqc7oLJf9I-124" edge="1">
          <mxGeometry relative="1" as="geometry" />
        </mxCell>
        <mxCell id="eVxNwqdZ_CVqc7oLJf9I-126" style="edgeStyle=orthogonalEdgeStyle;rounded=0;orthogonalLoop=1;jettySize=auto;html=1;entryX=1;entryY=0.5;entryDx=0;entryDy=0;fontSize=15;dashed=1;" parent="eVxNwqdZ_CVqc7oLJf9I-99" source="eVxNwqdZ_CVqc7oLJf9I-118" target="eVxNwqdZ_CVqc7oLJf9I-122" edge="1">
          <mxGeometry relative="1" as="geometry" />
        </mxCell>
        <mxCell id="eVxNwqdZ_CVqc7oLJf9I-118" value="Services" style="rounded=0;whiteSpace=wrap;html=1;fontSize=15;" parent="eVxNwqdZ_CVqc7oLJf9I-99" vertex="1">
          <mxGeometry x="410" y="200" width="120" height="60" as="geometry" />
        </mxCell>
        <mxCell id="eVxNwqdZ_CVqc7oLJf9I-128" value="" style="edgeStyle=orthogonalEdgeStyle;rounded=0;orthogonalLoop=1;jettySize=auto;html=1;fontSize=15;dashed=1;" parent="eVxNwqdZ_CVqc7oLJf9I-99" source="eVxNwqdZ_CVqc7oLJf9I-119" target="eVxNwqdZ_CVqc7oLJf9I-127" edge="1">
          <mxGeometry relative="1" as="geometry" />
        </mxCell>
        <mxCell id="eVxNwqdZ_CVqc7oLJf9I-119" value="Repositories" style="rounded=0;whiteSpace=wrap;html=1;fontSize=15;" parent="eVxNwqdZ_CVqc7oLJf9I-99" vertex="1">
          <mxGeometry x="634" y="200" width="120" height="60" as="geometry" />
        </mxCell>
        <mxCell id="eVxNwqdZ_CVqc7oLJf9I-122" value="Entities" style="rounded=0;whiteSpace=wrap;html=1;fontSize=15;" parent="eVxNwqdZ_CVqc7oLJf9I-99" vertex="1">
          <mxGeometry x="306" y="55" width="120" height="60" as="geometry" />
        </mxCell>
        <mxCell id="eVxNwqdZ_CVqc7oLJf9I-124" value="Abstractions" style="rounded=0;whiteSpace=wrap;html=1;fontSize=15;" parent="eVxNwqdZ_CVqc7oLJf9I-99" vertex="1">
          <mxGeometry x="514" y="55" width="120" height="60" as="geometry" />
        </mxCell>
        <mxCell id="eVxNwqdZ_CVqc7oLJf9I-127" value="&lt;font color=&quot;#000000&quot;&gt;Data Structures&lt;/font&gt;" style="rounded=1;whiteSpace=wrap;html=1;fontSize=15;fillColor=#ffe6cc;strokeColor=#d79b00;fontStyle=1" parent="eVxNwqdZ_CVqc7oLJf9I-99" vertex="1">
          <mxGeometry x="860" y="200" width="130" height="60" as="geometry" />
        </mxCell>
      </root>
    </mxGraphModel>
  </diagram>
</mxfile>
